<mxfile host="app.diagrams.net" modified="2023-04-17T00:26:45.360Z" agent="Mozilla/5.0 (Windows NT 10.0; Win64; x64) AppleWebKit/537.36 (KHTML, like Gecko) Chrome/112.0.0.0 Safari/537.36" etag="J0Ju68GIuNqVChUTSvWC" version="21.1.8" type="github">
  <diagram name="Page-1" id="efa7a0a1-bf9b-a30e-e6df-94a7791c09e9">
    <mxGraphModel dx="2074" dy="2356" grid="0" gridSize="10" guides="1" tooltips="1" connect="1" arrows="1" fold="1" page="0" pageScale="1" pageWidth="826" pageHeight="1169" background="none" math="0" shadow="0">
      <root>
        <mxCell id="0" />
        <mxCell id="1" parent="0" />
        <mxCell id="MLKeYVqBa8RRxU8ndWpH-114" value="&lt;br&gt;WebAgent&lt;br&gt;Security.User" style="strokeWidth=2;html=1;shape=mxgraph.flowchart.database;whiteSpace=wrap;fillColor=#ffe6cc;strokeColor=#d79b00;" parent="1" vertex="1">
          <mxGeometry x="13" y="-1286" width="123" height="92" as="geometry" />
        </mxCell>
        <mxCell id="MLKeYVqBa8RRxU8ndWpH-116" value="&lt;font color=&quot;#000000&quot;&gt;Identity Server API&lt;br&gt;POST&lt;br&gt;connect/token&lt;/font&gt;" style="rounded=0;whiteSpace=wrap;html=1;fillColor=#cdeb8b;strokeColor=#36393d;" parent="1" vertex="1">
          <mxGeometry x="61" y="-1021" width="200" height="60" as="geometry" />
        </mxCell>
        <mxCell id="MLKeYVqBa8RRxU8ndWpH-118" value="" style="endArrow=classic;html=1;rounded=0;entryX=0;entryY=0.5;entryDx=0;entryDy=0;" parent="1" target="MLKeYVqBa8RRxU8ndWpH-116" edge="1">
          <mxGeometry width="50" height="50" relative="1" as="geometry">
            <mxPoint x="-219" y="-991" as="sourcePoint" />
            <mxPoint x="105" y="-930" as="targetPoint" />
          </mxGeometry>
        </mxCell>
        <mxCell id="MLKeYVqBa8RRxU8ndWpH-119" value="&lt;br&gt;Online&lt;br&gt;Users" style="strokeWidth=2;html=1;shape=mxgraph.flowchart.database;whiteSpace=wrap;fillColor=#ffe6cc;strokeColor=#d79b00;" parent="1" vertex="1">
          <mxGeometry x="327" y="-1037" width="123" height="92" as="geometry" />
        </mxCell>
        <mxCell id="MLKeYVqBa8RRxU8ndWpH-120" value="&lt;br&gt;&lt;br&gt;WireDataEntry&lt;br&gt;SP&lt;br&gt;WebApi_UserRegistration_WithDataValidResult_WhiteLabel_v3" style="strokeWidth=2;html=1;shape=mxgraph.flowchart.database;whiteSpace=wrap;fillColor=#d5e8d4;strokeColor=#82b366;" parent="1" vertex="1">
          <mxGeometry x="-1" y="-357" width="397" height="92" as="geometry" />
        </mxCell>
        <mxCell id="MLKeYVqBa8RRxU8ndWpH-121" value="&lt;br&gt;WireSecurity&lt;br&gt;WebApi_TrustedDevices" style="strokeWidth=2;html=1;shape=mxgraph.flowchart.database;whiteSpace=wrap;fillColor=#ffe6cc;strokeColor=#d79b00;" parent="1" vertex="1">
          <mxGeometry x="-4" y="-1159" width="158" height="92" as="geometry" />
        </mxCell>
        <mxCell id="MLKeYVqBa8RRxU8ndWpH-122" value="&lt;br&gt;WebAgent&lt;br&gt;Security.UserRoles" style="strokeWidth=2;html=1;shape=mxgraph.flowchart.database;whiteSpace=wrap;fillColor=#ffe6cc;strokeColor=#d79b00;" parent="1" vertex="1">
          <mxGeometry x="-68.5" y="-79" width="123" height="92" as="geometry" />
        </mxCell>
        <mxCell id="MLKeYVqBa8RRxU8ndWpH-123" value="" style="endArrow=classic;html=1;rounded=0;entryX=0;entryY=0.5;entryDx=0;entryDy=0;entryPerimeter=0;exitX=1;exitY=0.5;exitDx=0;exitDy=0;" parent="1" source="MLKeYVqBa8RRxU8ndWpH-116" target="MLKeYVqBa8RRxU8ndWpH-119" edge="1">
          <mxGeometry width="50" height="50" relative="1" as="geometry">
            <mxPoint x="31" y="-1120" as="sourcePoint" />
            <mxPoint x="126" y="-1120" as="targetPoint" />
          </mxGeometry>
        </mxCell>
        <mxCell id="MLKeYVqBa8RRxU8ndWpH-124" value="" style="endArrow=classic;html=1;rounded=0;entryX=0;entryY=0.5;entryDx=0;entryDy=0;entryPerimeter=0;" parent="1" target="MLKeYVqBa8RRxU8ndWpH-114" edge="1">
          <mxGeometry width="50" height="50" relative="1" as="geometry">
            <mxPoint x="-214" y="-1240" as="sourcePoint" />
            <mxPoint x="-49" y="-1243" as="targetPoint" />
          </mxGeometry>
        </mxCell>
        <mxCell id="MUhubDVM9BwMi47_hHYt-114" value="UserName, PartnerId" style="edgeLabel;html=1;align=center;verticalAlign=middle;resizable=0;points=[];" parent="MLKeYVqBa8RRxU8ndWpH-124" vertex="1" connectable="0">
          <mxGeometry x="0.2327" relative="1" as="geometry">
            <mxPoint x="-32" y="-13" as="offset" />
          </mxGeometry>
        </mxCell>
        <mxCell id="MUhubDVM9BwMi47_hHYt-118" value="" style="endArrow=classic;html=1;rounded=0;exitX=0;exitY=0.85;exitDx=0;exitDy=0;exitPerimeter=0;" parent="1" source="MLKeYVqBa8RRxU8ndWpH-114" edge="1">
          <mxGeometry width="50" height="50" relative="1" as="geometry">
            <mxPoint x="19" y="-1353" as="sourcePoint" />
            <mxPoint x="-217" y="-1208" as="targetPoint" />
          </mxGeometry>
        </mxCell>
        <mxCell id="MUhubDVM9BwMi47_hHYt-119" value="User from WireSecurity" style="edgeLabel;html=1;align=center;verticalAlign=middle;resizable=0;points=[];" parent="MUhubDVM9BwMi47_hHYt-118" vertex="1" connectable="0">
          <mxGeometry x="0.4222" y="1" relative="1" as="geometry">
            <mxPoint x="47" y="-11" as="offset" />
          </mxGeometry>
        </mxCell>
        <mxCell id="MUhubDVM9BwMi47_hHYt-124" value="&lt;font color=&quot;#000000&quot;&gt;Handler&lt;br&gt;LoginQueryHandler&lt;br&gt;&lt;/font&gt;" style="rounded=0;whiteSpace=wrap;html=1;fillColor=#dae8fc;strokeColor=#6c8ebf;" parent="1" vertex="1">
          <mxGeometry x="-350" y="-1376" width="250" height="60" as="geometry" />
        </mxCell>
        <mxCell id="MUhubDVM9BwMi47_hHYt-125" value="" style="html=1;points=[];perimeter=orthogonalPerimeter;outlineConnect=0;targetShapes=umlLifeline;portConstraint=eastwest;newEdgeStyle={&quot;edgeStyle&quot;:&quot;elbowEdgeStyle&quot;,&quot;elbow&quot;:&quot;vertical&quot;,&quot;curved&quot;:0,&quot;rounded&quot;:0};" parent="1" vertex="1">
          <mxGeometry x="-233" y="-1314" width="10" height="1339" as="geometry" />
        </mxCell>
        <mxCell id="MUhubDVM9BwMi47_hHYt-127" value="" style="endArrow=classic;html=1;rounded=0;entryX=0;entryY=0.5;entryDx=0;entryDy=0;entryPerimeter=0;" parent="1" target="MLKeYVqBa8RRxU8ndWpH-120" edge="1">
          <mxGeometry width="50" height="50" relative="1" as="geometry">
            <mxPoint x="-214" y="-311" as="sourcePoint" />
            <mxPoint x="-13" y="-311.5" as="targetPoint" />
          </mxGeometry>
        </mxCell>
        <mxCell id="MUhubDVM9BwMi47_hHYt-128" value="3" style="edgeLabel;html=1;align=center;verticalAlign=middle;resizable=0;points=[];" parent="MUhubDVM9BwMi47_hHYt-127" vertex="1" connectable="0">
          <mxGeometry x="0.2632" relative="1" as="geometry">
            <mxPoint as="offset" />
          </mxGeometry>
        </mxCell>
        <mxCell id="MUhubDVM9BwMi47_hHYt-130" value="" style="endArrow=none;dashed=1;html=1;rounded=0;exitX=0.5;exitY=1;exitDx=0;exitDy=0;" parent="1" edge="1">
          <mxGeometry width="50" height="50" relative="1" as="geometry">
            <mxPoint x="-107.5" y="-365" as="sourcePoint" />
            <mxPoint x="-116" y="-312" as="targetPoint" />
          </mxGeometry>
        </mxCell>
        <mxCell id="MUhubDVM9BwMi47_hHYt-131" value="&lt;br&gt;WireSecurity&lt;br&gt;WebAgent_Users" style="strokeWidth=2;html=1;shape=mxgraph.flowchart.database;whiteSpace=wrap;fillColor=#ffe6cc;strokeColor=#d79b00;" parent="1" vertex="1">
          <mxGeometry x="529" y="-498" width="158" height="92" as="geometry" />
        </mxCell>
        <mxCell id="MUhubDVM9BwMi47_hHYt-132" value="" style="endArrow=classic;html=1;rounded=0;exitX=1;exitY=0.5;exitDx=0;exitDy=0;exitPerimeter=0;entryX=0;entryY=0.5;entryDx=0;entryDy=0;entryPerimeter=0;" parent="1" source="MLKeYVqBa8RRxU8ndWpH-120" target="MUhubDVM9BwMi47_hHYt-131" edge="1">
          <mxGeometry width="50" height="50" relative="1" as="geometry">
            <mxPoint x="224" y="-462" as="sourcePoint" />
            <mxPoint x="779" y="-710" as="targetPoint" />
          </mxGeometry>
        </mxCell>
        <mxCell id="MUhubDVM9BwMi47_hHYt-144" value="Insert" style="edgeLabel;html=1;align=center;verticalAlign=middle;resizable=0;points=[];" parent="MUhubDVM9BwMi47_hHYt-132" vertex="1" connectable="0">
          <mxGeometry x="-0.2274" y="-4" relative="1" as="geometry">
            <mxPoint x="41" y="-23" as="offset" />
          </mxGeometry>
        </mxCell>
        <mxCell id="MUhubDVM9BwMi47_hHYt-145" value="1" style="edgeLabel;html=1;align=center;verticalAlign=middle;resizable=0;points=[];" parent="MUhubDVM9BwMi47_hHYt-132" vertex="1" connectable="0">
          <mxGeometry x="-0.2994" y="-1" relative="1" as="geometry">
            <mxPoint as="offset" />
          </mxGeometry>
        </mxCell>
        <mxCell id="MUhubDVM9BwMi47_hHYt-134" value="&lt;br&gt;&lt;br&gt;WireTransac&lt;br&gt;SP&lt;br&gt;Senders_Create_CRM_Fase2" style="strokeWidth=2;html=1;shape=mxgraph.flowchart.database;whiteSpace=wrap;fillColor=#d5e8d4;strokeColor=#82b366;" parent="1" vertex="1">
          <mxGeometry x="515" y="-361" width="192" height="92" as="geometry" />
        </mxCell>
        <mxCell id="MUhubDVM9BwMi47_hHYt-135" value="" style="endArrow=classic;html=1;rounded=0;exitX=1;exitY=0.5;exitDx=0;exitDy=0;exitPerimeter=0;entryX=0;entryY=0.5;entryDx=0;entryDy=0;entryPerimeter=0;" parent="1" source="MLKeYVqBa8RRxU8ndWpH-120" target="MUhubDVM9BwMi47_hHYt-134" edge="1">
          <mxGeometry width="50" height="50" relative="1" as="geometry">
            <mxPoint x="406" y="-301" as="sourcePoint" />
            <mxPoint x="539" y="-442" as="targetPoint" />
          </mxGeometry>
        </mxCell>
        <mxCell id="MUhubDVM9BwMi47_hHYt-146" value="2" style="edgeLabel;html=1;align=center;verticalAlign=middle;resizable=0;points=[];" parent="MUhubDVM9BwMi47_hHYt-135" vertex="1" connectable="0">
          <mxGeometry x="-0.3066" relative="1" as="geometry">
            <mxPoint x="1" as="offset" />
          </mxGeometry>
        </mxCell>
        <mxCell id="MUhubDVM9BwMi47_hHYt-136" value="&lt;br&gt;WireTransac&lt;br&gt;Comp_SndGroups" style="strokeWidth=2;html=1;shape=mxgraph.flowchart.database;whiteSpace=wrap;fillColor=#ffe6cc;strokeColor=#d79b00;" parent="1" vertex="1">
          <mxGeometry x="789" y="-477" width="158" height="92" as="geometry" />
        </mxCell>
        <mxCell id="MUhubDVM9BwMi47_hHYt-137" value="" style="endArrow=classic;html=1;rounded=0;exitX=1;exitY=0.5;exitDx=0;exitDy=0;exitPerimeter=0;entryX=0;entryY=0.5;entryDx=0;entryDy=0;entryPerimeter=0;" parent="1" source="MUhubDVM9BwMi47_hHYt-134" target="MUhubDVM9BwMi47_hHYt-136" edge="1">
          <mxGeometry width="50" height="50" relative="1" as="geometry">
            <mxPoint x="483" y="-395" as="sourcePoint" />
            <mxPoint x="616" y="-536" as="targetPoint" />
          </mxGeometry>
        </mxCell>
        <mxCell id="MUhubDVM9BwMi47_hHYt-138" value="&lt;br&gt;WireTransac&lt;br&gt;Senders" style="strokeWidth=2;html=1;shape=mxgraph.flowchart.database;whiteSpace=wrap;fillColor=#ffe6cc;strokeColor=#d79b00;" parent="1" vertex="1">
          <mxGeometry x="789" y="-361" width="158" height="92" as="geometry" />
        </mxCell>
        <mxCell id="MUhubDVM9BwMi47_hHYt-139" value="" style="endArrow=classic;html=1;rounded=0;exitX=1;exitY=0.5;exitDx=0;exitDy=0;exitPerimeter=0;entryX=0;entryY=0.5;entryDx=0;entryDy=0;entryPerimeter=0;" parent="1" source="MUhubDVM9BwMi47_hHYt-134" target="MUhubDVM9BwMi47_hHYt-138" edge="1">
          <mxGeometry width="50" height="50" relative="1" as="geometry">
            <mxPoint x="717" y="-305" as="sourcePoint" />
            <mxPoint x="795" y="-420" as="targetPoint" />
          </mxGeometry>
        </mxCell>
        <mxCell id="MUhubDVM9BwMi47_hHYt-140" value="&lt;br&gt;WireTransac&lt;br&gt;SenderVersions" style="strokeWidth=2;html=1;shape=mxgraph.flowchart.database;whiteSpace=wrap;fillColor=#ffe6cc;strokeColor=#d79b00;" parent="1" vertex="1">
          <mxGeometry x="789" y="-246" width="158" height="92" as="geometry" />
        </mxCell>
        <mxCell id="MUhubDVM9BwMi47_hHYt-141" value="" style="endArrow=classic;html=1;rounded=0;exitX=1;exitY=0.5;exitDx=0;exitDy=0;exitPerimeter=0;entryX=0;entryY=0.5;entryDx=0;entryDy=0;entryPerimeter=0;" parent="1" source="MUhubDVM9BwMi47_hHYt-134" target="MUhubDVM9BwMi47_hHYt-140" edge="1">
          <mxGeometry width="50" height="50" relative="1" as="geometry">
            <mxPoint x="717" y="-305" as="sourcePoint" />
            <mxPoint x="793" y="-255" as="targetPoint" />
          </mxGeometry>
        </mxCell>
        <mxCell id="MUhubDVM9BwMi47_hHYt-143" value="" style="endArrow=none;dashed=1;html=1;rounded=0;exitX=0.5;exitY=1;exitDx=0;exitDy=0;" parent="1" edge="1">
          <mxGeometry width="50" height="50" relative="1" as="geometry">
            <mxPoint x="328" y="-451" as="sourcePoint" />
            <mxPoint x="470" y="-393" as="targetPoint" />
          </mxGeometry>
        </mxCell>
        <mxCell id="MUhubDVM9BwMi47_hHYt-147" value="&lt;br&gt;WireSecurity&lt;br&gt;WebAgent_Users" style="strokeWidth=2;html=1;shape=mxgraph.flowchart.database;whiteSpace=wrap;fillColor=#ffe6cc;strokeColor=#d79b00;" parent="1" vertex="1">
          <mxGeometry x="532" y="-213" width="158" height="92" as="geometry" />
        </mxCell>
        <mxCell id="MUhubDVM9BwMi47_hHYt-148" value="" style="endArrow=classic;html=1;rounded=0;exitX=1;exitY=0.5;exitDx=0;exitDy=0;exitPerimeter=0;entryX=0;entryY=0.5;entryDx=0;entryDy=0;entryPerimeter=0;" parent="1" source="MLKeYVqBa8RRxU8ndWpH-120" target="MUhubDVM9BwMi47_hHYt-147" edge="1">
          <mxGeometry width="50" height="50" relative="1" as="geometry">
            <mxPoint x="406" y="-301" as="sourcePoint" />
            <mxPoint x="539" y="-442" as="targetPoint" />
          </mxGeometry>
        </mxCell>
        <mxCell id="MUhubDVM9BwMi47_hHYt-149" value="Update&lt;br&gt;SenderId" style="edgeLabel;html=1;align=center;verticalAlign=middle;resizable=0;points=[];" parent="MUhubDVM9BwMi47_hHYt-148" vertex="1" connectable="0">
          <mxGeometry x="-0.2274" y="-4" relative="1" as="geometry">
            <mxPoint x="2" y="36" as="offset" />
          </mxGeometry>
        </mxCell>
        <mxCell id="MUhubDVM9BwMi47_hHYt-150" value="3" style="edgeLabel;html=1;align=center;verticalAlign=middle;resizable=0;points=[];" parent="MUhubDVM9BwMi47_hHYt-148" vertex="1" connectable="0">
          <mxGeometry x="-0.2994" y="-1" relative="1" as="geometry">
            <mxPoint as="offset" />
          </mxGeometry>
        </mxCell>
        <mxCell id="MUhubDVM9BwMi47_hHYt-154" value="" style="endArrow=classic;html=1;rounded=0;entryX=0;entryY=0.5;entryDx=0;entryDy=0;entryPerimeter=0;" parent="1" target="MLKeYVqBa8RRxU8ndWpH-121" edge="1">
          <mxGeometry width="50" height="50" relative="1" as="geometry">
            <mxPoint x="-217" y="-1113" as="sourcePoint" />
            <mxPoint x="91" y="-1256" as="targetPoint" />
          </mxGeometry>
        </mxCell>
        <mxCell id="sMybmjBBknjoh3TIYzj4-4" value="WebAgentUserId, DeviceId" style="edgeLabel;html=1;align=center;verticalAlign=middle;resizable=0;points=[];" vertex="1" connectable="0" parent="MUhubDVM9BwMi47_hHYt-154">
          <mxGeometry x="0.277" y="-1" relative="1" as="geometry">
            <mxPoint x="-26" y="-11" as="offset" />
          </mxGeometry>
        </mxCell>
        <mxCell id="MUhubDVM9BwMi47_hHYt-156" value="" style="endArrow=classic;html=1;rounded=0;entryX=0;entryY=0.5;entryDx=0;entryDy=0;entryPerimeter=0;" parent="1" target="MLKeYVqBa8RRxU8ndWpH-122" edge="1">
          <mxGeometry width="50" height="50" relative="1" as="geometry">
            <mxPoint x="-217" y="-33" as="sourcePoint" />
            <mxPoint x="-76" y="-148" as="targetPoint" />
          </mxGeometry>
        </mxCell>
        <mxCell id="MUhubDVM9BwMi47_hHYt-158" value="Se crean registros en&lt;br&gt;WebAgent&lt;br&gt;- Security.User&lt;br&gt;- Security.UserRoles&lt;br&gt;&lt;br&gt;Online&lt;br&gt;- Users&lt;br&gt;&lt;br&gt;WireSecurity&lt;br&gt;- WebAgent_Users&lt;br&gt;- WebApi_TrustedDevices&lt;br&gt;&lt;br&gt;WireTransac&lt;br&gt;- Senders&lt;br&gt;- SenderVersions&lt;br&gt;- Comp_SndGroups&lt;br&gt;" style="text;html=1;strokeColor=#0e8088;fillColor=#b0e3e6;align=left;verticalAlign=middle;whiteSpace=wrap;rounded=0;" parent="1" vertex="1">
          <mxGeometry x="-200" y="51" width="190" height="253" as="geometry" />
        </mxCell>
        <mxCell id="sMybmjBBknjoh3TIYzj4-2" value="" style="endArrow=classic;html=1;rounded=0;exitX=0;exitY=0.85;exitDx=0;exitDy=0;exitPerimeter=0;" edge="1" parent="1" source="MLKeYVqBa8RRxU8ndWpH-121">
          <mxGeometry width="50" height="50" relative="1" as="geometry">
            <mxPoint x="-14" y="-1079" as="sourcePoint" />
            <mxPoint x="-221" y="-1081" as="targetPoint" />
          </mxGeometry>
        </mxCell>
        <mxCell id="sMybmjBBknjoh3TIYzj4-5" value="IsTrustedDevice" style="edgeLabel;html=1;align=center;verticalAlign=middle;resizable=0;points=[];" vertex="1" connectable="0" parent="sMybmjBBknjoh3TIYzj4-2">
          <mxGeometry x="-0.2627" y="-2" relative="1" as="geometry">
            <mxPoint x="-21" y="-9" as="offset" />
          </mxGeometry>
        </mxCell>
      </root>
    </mxGraphModel>
  </diagram>
</mxfile>
